<svg width="312" height="152" viewBox="0 0 312 152" fill="none" xmlns="http://www.w3.org/2000/svg">
<path d="M83.3229 144.776H81.1809L84.4447 135.322H87.0207L90.28 144.776H88.1379L85.7697 137.482H85.6958L83.3229 144.776ZM83.1891 141.06H88.2487V142.62H83.1891V141.06ZM96.5369 135.322V144.776H94.5379V135.322H96.5369ZM113.464 146.179C112.482 146.179 111.608 146.046 110.842 145.778C110.076 145.513 109.428 145.125 108.898 144.614C108.369 144.101 107.966 143.474 107.689 142.736C107.412 141.997 107.273 141.157 107.273 140.215C107.273 139.286 107.412 138.442 107.689 137.685C107.969 136.928 108.377 136.279 108.912 135.737C109.448 135.192 110.102 134.774 110.874 134.481C111.65 134.189 112.533 134.043 113.524 134.043C114.441 134.043 115.26 134.177 115.98 134.444C116.703 134.712 117.316 135.094 117.817 135.589C118.322 136.082 118.705 136.668 118.967 137.348C119.232 138.025 119.362 138.775 119.359 139.596C119.362 140.163 119.313 140.683 119.212 141.157C119.11 141.631 118.95 142.045 118.731 142.399C118.516 142.749 118.233 143.028 117.882 143.234C117.531 143.437 117.106 143.553 116.608 143.58C116.251 143.608 115.962 143.582 115.74 143.502C115.518 143.422 115.349 143.303 115.232 143.146C115.118 142.986 115.044 142.8 115.011 142.588H114.955C114.881 142.773 114.737 142.94 114.521 143.091C114.306 143.239 114.043 143.354 113.732 143.437C113.424 143.517 113.096 143.547 112.748 143.525C112.385 143.503 112.041 143.419 111.714 143.271C111.391 143.123 111.103 142.909 110.851 142.629C110.602 142.349 110.405 142.003 110.26 141.591C110.119 141.178 110.046 140.701 110.043 140.16C110.046 139.624 110.122 139.158 110.269 138.761C110.42 138.364 110.619 138.03 110.865 137.759C111.114 137.488 111.391 137.276 111.696 137.122C112.001 136.968 112.307 136.87 112.615 136.826C112.962 136.774 113.292 136.774 113.602 136.826C113.913 136.879 114.175 136.963 114.387 137.08C114.603 137.197 114.737 137.324 114.789 137.459H114.854V136.942H116.299V141.448C116.302 141.66 116.349 141.825 116.442 141.942C116.534 142.058 116.659 142.117 116.816 142.117C117.028 142.117 117.205 142.023 117.346 141.835C117.491 141.648 117.599 141.36 117.67 140.972C117.743 140.584 117.78 140.09 117.78 139.49C117.78 138.912 117.703 138.404 117.55 137.967C117.399 137.527 117.186 137.153 116.913 136.845C116.642 136.534 116.326 136.282 115.966 136.088C115.606 135.894 115.215 135.752 114.794 135.663C114.375 135.574 113.944 135.529 113.501 135.529C112.735 135.529 112.065 135.646 111.493 135.88C110.92 136.111 110.443 136.436 110.062 136.854C109.68 137.273 109.394 137.764 109.203 138.327C109.015 138.887 108.92 139.498 108.917 140.16C108.92 140.889 109.021 141.535 109.221 142.099C109.425 142.659 109.723 143.13 110.117 143.511C110.511 143.893 110.997 144.182 111.576 144.379C112.154 144.576 112.819 144.674 113.57 144.674C113.924 144.674 114.27 144.65 114.609 144.601C114.947 144.548 115.254 144.487 115.528 144.416C115.801 144.342 116.022 144.271 116.188 144.204L116.645 145.542C116.451 145.653 116.188 145.756 115.855 145.852C115.526 145.95 115.154 146.029 114.738 146.087C114.326 146.149 113.901 146.179 113.464 146.179ZM113.252 142.006C113.627 142.006 113.926 141.934 114.147 141.789C114.372 141.645 114.532 141.431 114.627 141.148C114.726 140.861 114.772 140.509 114.766 140.09C114.763 139.721 114.715 139.409 114.623 139.153C114.533 138.895 114.378 138.699 114.156 138.567C113.938 138.431 113.633 138.364 113.242 138.364C112.901 138.364 112.61 138.436 112.37 138.581C112.133 138.725 111.951 138.929 111.825 139.19C111.702 139.449 111.639 139.753 111.636 140.104C111.639 140.43 111.691 140.74 111.793 141.032C111.894 141.321 112.062 141.557 112.296 141.738C112.53 141.917 112.848 142.006 113.252 142.006ZM130.073 144.776V135.322H133.803C134.52 135.322 135.131 135.458 135.635 135.732C136.14 136.003 136.525 136.38 136.79 136.863C137.057 137.344 137.191 137.898 137.191 138.525C137.191 139.153 137.056 139.707 136.785 140.187C136.514 140.667 136.122 141.041 135.608 141.309C135.097 141.577 134.478 141.711 133.752 141.711H131.374V140.109H133.429C133.813 140.109 134.13 140.043 134.38 139.91C134.632 139.775 134.82 139.589 134.943 139.352C135.069 139.112 135.132 138.836 135.132 138.525C135.132 138.211 135.069 137.938 134.943 137.704C134.82 137.467 134.632 137.284 134.38 137.154C134.127 137.022 133.807 136.956 133.42 136.956H132.072V144.776H130.073ZM141.61 144.776V135.322H143.609V143.128H147.662V144.776H141.61ZM153.976 144.776H151.834L155.098 135.322H157.674L160.933 144.776H158.791L156.423 137.482H156.349L153.976 144.776ZM153.843 141.06H158.902V142.62H153.843V141.06ZM165.191 144.776V135.322H167.19V139.49H167.315L170.717 135.322H173.113L169.605 139.555L173.155 144.776H170.763L168.174 140.889L167.19 142.089V144.776H165.191ZM182.327 138.041C182.29 137.668 182.132 137.379 181.852 137.173C181.571 136.967 181.191 136.863 180.711 136.863C180.385 136.863 180.11 136.91 179.885 137.002C179.66 137.091 179.488 137.216 179.368 137.376C179.251 137.536 179.192 137.717 179.192 137.921C179.186 138.09 179.222 138.238 179.299 138.364C179.379 138.49 179.488 138.599 179.626 138.692C179.765 138.781 179.925 138.859 180.107 138.927C180.288 138.992 180.482 139.047 180.688 139.093L181.538 139.296C181.95 139.389 182.329 139.512 182.673 139.666C183.018 139.82 183.316 140.009 183.569 140.233C183.821 140.458 184.017 140.723 184.155 141.027C184.297 141.332 184.369 141.681 184.372 142.075C184.369 142.654 184.221 143.156 183.929 143.58C183.64 144.002 183.221 144.33 182.673 144.564C182.129 144.795 181.471 144.91 180.702 144.91C179.939 144.91 179.274 144.793 178.708 144.559C178.144 144.325 177.704 143.979 177.387 143.52C177.073 143.059 176.909 142.488 176.893 141.808H178.828C178.849 142.125 178.94 142.389 179.1 142.602C179.263 142.811 179.48 142.969 179.751 143.077C180.025 143.182 180.334 143.234 180.679 143.234C181.017 143.234 181.311 143.185 181.561 143.086C181.813 142.988 182.008 142.851 182.147 142.676C182.285 142.5 182.355 142.299 182.355 142.071C182.355 141.858 182.292 141.68 182.165 141.535C182.042 141.391 181.861 141.268 181.621 141.166C181.384 141.064 181.093 140.972 180.748 140.889L179.719 140.63C178.922 140.437 178.292 140.133 177.831 139.721C177.369 139.309 177.14 138.753 177.143 138.054C177.14 137.482 177.292 136.982 177.6 136.554C177.911 136.126 178.337 135.792 178.879 135.552C179.42 135.312 180.036 135.192 180.725 135.192C181.427 135.192 182.039 135.312 182.562 135.552C183.089 135.792 183.498 136.126 183.79 136.554C184.083 136.982 184.234 137.477 184.243 138.041H182.327ZM188.837 144.776V135.322H190.836V139.222H194.893V135.322H196.888V144.776H194.893V140.871H190.836V144.776H188.837ZM203.286 144.776H201.143L204.407 135.322H206.983L210.243 144.776H208.1L205.732 137.482H205.658L203.286 144.776ZM203.152 141.06H208.211V142.62H203.152V141.06Z" fill="#C4C4C4"/>
<path d="M0 122.08V0H33.119V95.3747H82.4402V122.08H0Z" fill="#669EFF"/>
<path d="M65.7896 122.08V0H153.71V26.705H98.9085V47.6874H149.183V74.3923H98.9085V95.3747H153.471V122.08H65.7896Z" fill="#337DFF"/>
<path d="M155.599 122.08H119.859L160.126 0H205.397L245.663 122.08H209.924L183.238 33.6196H182.285L155.599 122.08ZM148.928 73.9155H216.118V98.7128H148.928V73.9155Z" fill="#2266DD"/>
<path d="M214.073 122.08V0H266.729C275.782 0 283.705 1.78832 290.496 5.36495C297.286 8.94138 302.568 13.9686 306.342 20.4461C310.114 26.9236 312 34.4939 312 43.1571C312 51.8999 310.054 59.4702 306.162 65.8683C302.31 72.2664 296.889 77.1941 289.901 80.6514C282.95 84.1087 274.829 85.8374 265.538 85.8374H234.087V60.0861H258.865C262.758 60.0861 266.074 59.4106 268.813 58.0595C271.593 56.6685 273.718 54.7015 275.187 52.158C276.697 49.6148 277.452 46.6144 277.452 43.1571C277.452 39.6601 276.697 36.6795 275.187 34.2157C273.718 31.7121 271.593 29.8047 268.813 28.4933C266.074 27.1421 262.758 26.4665 258.865 26.4665H247.191V122.08H214.073Z" fill="#1B51B1"/>
</svg>
